<svg width="64" height="64" viewBox="0 0 64 64" fill="none" xmlns="http://www.w3.org/2000/svg">
<g clip-path="url(#clip0)">
<path d="M32 4.79962C32.6902 4.79962 33.25 4.24 33.25 3.54962V1.25C33.25 0.559625 32.6902 0 32 0C31.3096 0 30.75 0.559625 30.75 1.25V3.54962C30.75 4.24 31.3096 4.79962 32 4.79962Z" fill="white"/>
<path d="M42.8261 7.84496C43.0206 7.95496 43.2319 8.00721 43.4405 8.00721C43.8762 8.00721 44.2997 7.77884 44.5296 7.37234L45.7365 5.23871C46.0764 4.63784 45.8647 3.87521 45.264 3.53521C44.6632 3.19546 43.9004 3.40684 43.5605 4.00784L42.3536 6.14146C42.0137 6.74234 42.2254 7.50496 42.8261 7.84496Z" fill="white"/>
<path d="M51.224 16.0942C51.4283 16.0942 51.6355 16.0441 51.8269 15.9383L54.134 14.6649C54.7384 14.3314 54.958 13.5709 54.6244 12.9666C54.2908 12.3621 53.5301 12.1426 52.926 12.4762L50.6189 13.7496C50.0145 14.0831 49.7949 14.8436 50.1285 15.4479C50.3565 15.8609 50.7836 16.0942 51.224 16.0942Z" fill="white"/>
<path d="M56.878 24.8936H54.4375C53.7473 24.8936 53.1875 25.4532 53.1875 26.1436C53.1875 26.8339 53.7473 27.3936 54.4375 27.3936H56.878C57.5683 27.3936 58.128 26.8339 58.128 26.1436C58.128 25.4532 57.5684 24.8936 56.878 24.8936Z" fill="white"/>
<path d="M19.4707 7.37319C19.7007 7.77969 20.124 8.00806 20.5598 8.00806C20.7683 8.00806 20.9797 7.95581 21.1742 7.84581C21.775 7.50594 21.9865 6.74331 21.6467 6.14244L20.4398 4.00881C20.0997 3.40781 19.3372 3.19644 18.7363 3.53619C18.1354 3.87606 17.9239 4.63869 18.2638 5.23969L19.4707 7.37319Z" fill="white"/>
<path d="M9.86596 14.6649L12.1731 15.9383C12.3646 16.044 12.5716 16.0941 12.776 16.0941C13.2163 16.0941 13.6435 15.8608 13.8715 15.4479C14.2051 14.8435 13.9855 14.0831 13.3811 13.7495L11.074 12.4761C10.4696 12.1426 9.70921 12.362 9.37558 12.9665C9.04196 13.5709 9.26158 14.3313 9.86596 14.6649Z" fill="white"/>
<path d="M9.56257 27.3936C10.2528 27.3936 10.8126 26.8339 10.8126 26.1436C10.8126 25.4532 10.2528 24.8936 9.56257 24.8936H7.12207C6.43182 24.8936 5.87207 25.4532 5.87207 26.1436C5.87207 26.8339 6.43182 27.3936 7.12207 27.3936H9.56257Z" fill="white"/>
<path d="M56.011 55.8518H52.9483V48.1733C52.9483 47.483 52.3885 46.9233 51.6983 46.9233H49.0974V25.5383C49.0974 16.1127 41.429 8.44434 31.9958 8.44434C22.5702 8.44434 14.9018 16.1127 14.9018 25.5383V46.9235H12.301C11.6108 46.9235 11.051 47.4831 11.051 48.1735V55.852H7.98828C7.29803 55.852 6.73828 56.4116 6.73828 57.102V62.75C6.73828 63.4403 7.29803 64 7.98828 64H56.011C56.7014 64 57.261 63.4403 57.261 62.75V57.1018C57.261 56.4116 56.7013 55.8518 56.011 55.8518ZM17.4019 25.5383C17.4019 17.4912 23.9488 10.9443 32.0035 10.9443C40.0507 10.9443 46.5975 17.4911 46.5975 25.5383V46.9235H35.7622V35.1261C37.5707 33.8922 38.666 31.8475 38.666 29.6236C38.666 25.9491 35.6755 22.9597 31.9997 22.9597C28.3238 22.9597 25.3333 25.9491 25.3333 29.6236C25.3333 31.8473 26.4288 33.8921 28.2373 35.1261V46.9235H17.4019V25.5383ZM30.0677 33.3138C28.6895 32.5912 27.8333 31.1772 27.8333 29.6236C27.8333 27.3276 29.7023 25.4597 31.9997 25.4597C34.297 25.4597 36.166 27.3276 36.166 29.6236C36.166 31.1773 35.3098 32.5913 33.9317 33.3138C33.52 33.5297 33.2622 33.9561 33.2622 34.4208V46.9233H30.7372V34.4208C30.7372 33.956 30.4793 33.5296 30.0677 33.3138ZM54.761 61.5H9.23828V58.3518H26.3489C27.0393 58.3518 27.5989 57.7922 27.5989 57.1018C27.5989 56.4115 27.0393 55.8518 26.3489 55.8518H13.551V49.4233H50.4483V55.8518H37.6504C36.9602 55.8518 36.4004 56.4115 36.4004 57.1018C36.4004 57.7922 36.9602 58.3518 37.6504 58.3518H54.761V61.5Z" fill="white"/>
<path d="M33.1772 56.6233C32.976 56.1402 32.4796 55.825 31.9558 55.8533C31.4357 55.8815 30.9788 56.2406 30.8272 56.7383C30.6757 57.2356 30.8576 57.7972 31.278 58.1056C31.6885 58.4067 32.2485 58.4307 32.6817 58.1628C33.1948 57.8456 33.4095 57.1808 33.1772 56.6233Z" fill="white"/>
</g>
<defs>
<clipPath id="clip0">
<rect width="64" height="64" fill="white"/>
</clipPath>
</defs>
</svg>
