<svg width="42" height="46" viewBox="0 0 42 46" fill="none" xmlns="http://www.w3.org/2000/svg">
<path d="M37.9612 21.4662C38.2004 21.5291 38.4466 21.5614 38.6939 21.5623C39.2685 21.5619 39.8301 21.3913 40.3077 21.072C40.7854 20.7526 41.1576 20.2989 41.3775 19.7681C41.5974 19.2373 41.6551 18.6532 41.5432 18.0896C41.4313 17.5261 41.1549 17.0083 40.7489 16.6017C40.7013 16.5545 40.6507 16.5118 40.5989 16.4679C41.0864 14.7001 40.9739 13.1604 40.2416 11.8906C38.6666 9.16062 34.5307 8.26625 28.8558 9.39612C26.9909 3.91662 24.1469 0.78125 20.9999 0.78125C17.8529 0.78125 15.0093 3.91625 13.1426 9.3965C7.46656 8.26588 3.33181 9.16063 1.75719 11.8903C1.04731 13.1165 0.922814 14.6574 1.37544 16.3678C0.841182 16.786 0.470112 17.378 0.326547 18.0412C0.182982 18.7043 0.275971 19.3968 0.589397 19.9986C0.902824 20.6004 1.41693 21.0735 2.0426 21.336C2.66828 21.5986 3.36608 21.6339 4.01506 21.4359C4.40431 21.9537 4.83069 22.4776 5.29006 23.0022C1.47669 27.3537 0.183314 31.3824 1.75681 34.1094C2.88744 36.0695 5.33469 37.0861 8.72544 37.0861C10.2098 37.0679 11.6888 36.9057 13.1418 36.6016C15.0082 42.0826 17.8526 45.2188 20.9999 45.2188C22.4219 45.2188 23.8244 44.552 25.0848 43.2972C25.7049 43.569 26.4005 43.6155 27.0513 43.4289C27.7021 43.2423 28.2673 42.8342 28.6491 42.2751C29.031 41.716 29.2056 41.0412 29.1428 40.3671C29.0799 39.6929 28.7836 39.062 28.3049 38.5831C28.2577 38.5355 28.2071 38.4924 28.1572 38.4489C28.4028 37.868 28.6379 37.2489 28.8599 36.6016C30.3123 36.9059 31.7907 37.0681 33.2744 37.0861C36.6648 37.0861 39.1124 36.0691 40.2431 34.1094C41.8181 31.3824 40.5232 27.3538 36.7106 23.0026C37.1531 22.4975 37.5708 21.9837 37.9612 21.4662ZM39.8204 19.784C39.5213 20.0823 39.1162 20.2498 38.6938 20.2498C38.2713 20.2498 37.8662 20.0823 37.5671 19.784C37.3444 19.5612 37.1928 19.2773 37.1315 18.9683C37.0701 18.6594 37.1017 18.3391 37.2223 18.0481C37.3429 17.7571 37.5471 17.5084 37.8091 17.3334C38.071 17.1584 38.3789 17.065 38.6939 17.065C39.0089 17.065 39.3169 17.1584 39.5788 17.3334C39.8408 17.5084 40.0449 17.7571 40.1656 18.0481C40.2862 18.3391 40.3178 18.6594 40.2564 18.9683C40.1951 19.2773 40.0435 19.5612 39.8208 19.784H39.8204ZM39.1061 12.5465C39.6194 13.4379 39.7184 14.546 39.4094 15.8465C38.7932 15.6898 38.1425 15.7396 37.5573 15.9884C36.9721 16.2372 36.4848 16.6711 36.17 17.2237C35.8553 17.7762 35.7305 18.4167 35.815 19.047C35.8994 19.6772 36.1884 20.2623 36.6374 20.7125C36.6847 20.7601 36.7353 20.8029 36.7852 20.8468C36.4807 21.2432 36.1592 21.6367 35.8207 22.0272C34.2121 20.357 32.4602 18.831 30.5849 17.4669C30.34 15.1617 29.8959 12.882 29.2574 10.6535C34.2029 9.69725 37.8603 10.3869 39.1061 12.5461V12.5465ZM27.9708 35.0682C26.1451 34.6228 24.3553 34.041 22.6166 33.3279C23.7359 32.7868 24.8508 32.1987 25.9447 31.5672C27.0472 30.9298 28.1141 30.2577 29.1322 29.5621C28.8832 31.4239 28.495 33.2645 27.9708 35.0682ZM14.0291 35.0682C13.5044 33.2645 13.1159 31.424 12.8666 29.5621C13.8873 30.2577 14.9538 30.9305 16.0559 31.5672C17.1487 32.1987 18.2624 32.7875 19.3837 33.3279C17.6448 34.041 15.8549 34.6228 14.0291 35.0682ZM14.0291 10.9318C15.8548 11.3772 17.6446 11.9589 19.3833 12.6721C18.2636 13.2133 17.1491 13.8013 16.0552 14.4346C14.9527 15.0721 13.8858 15.7441 12.8658 16.4398C13.1152 14.5772 13.5041 12.7361 14.0291 10.9318ZM11.2499 26.7627C9.76129 25.6165 8.36201 24.3586 7.06419 23C8.36212 21.6415 9.7614 20.3837 11.2499 19.2372C11.1573 20.4748 11.1082 21.7359 11.1082 23C11.1082 24.2641 11.1566 25.5237 11.2499 26.7627ZM16.7126 30.4303C15.2921 29.6101 13.9327 28.7296 12.6599 27.8139C12.5032 26.2422 12.4207 24.6264 12.4207 23C12.4207 21.3736 12.5032 19.7581 12.6599 18.1861C13.9316 17.2711 15.2913 16.3903 16.7126 15.5697C18.1188 14.7571 19.5603 14.0184 21.0003 13.3655C22.4414 14.0187 23.8826 14.7575 25.2888 15.5697C26.7093 16.3899 28.0687 17.2704 29.3414 18.1861C29.4982 19.7577 29.5807 21.3736 29.5807 23C29.5807 24.6264 29.4982 26.2419 29.3414 27.8139C28.0698 28.7289 26.7101 29.6098 25.2888 30.4303C23.8826 31.2429 22.4411 31.9816 21.0011 32.6345C19.5592 31.9813 18.1181 31.2425 16.7118 30.4303H16.7126ZM27.9716 10.9303C28.4962 12.734 28.8848 14.5745 29.1341 16.4364C28.1133 15.7408 27.0468 15.068 25.9466 14.4313C24.8512 13.8013 23.7374 13.2125 22.6162 12.6721C24.3551 11.959 26.145 11.3772 27.9708 10.9318L27.9716 10.9303ZM30.7499 19.2372C32.2386 20.3835 33.6379 21.6414 34.9357 23C33.6378 24.3585 32.2385 25.6163 30.7499 26.7627C30.8426 25.5252 30.8917 24.2641 30.8917 23C30.8917 21.7359 30.8433 20.4762 30.7499 19.2372ZM20.9999 2.09375C23.4892 2.09375 25.9173 4.91713 27.5681 9.67813C25.3178 10.2375 23.1202 10.9903 20.9996 11.9281C18.8793 10.9902 16.6818 10.2374 14.4318 9.67813C16.0829 4.91675 18.5107 2.09375 20.9999 2.09375ZM2.03581 19.784C1.77426 19.5232 1.61124 19.1798 1.57454 18.8123C1.53785 18.4448 1.62974 18.076 1.83456 17.7687C2.03938 17.4613 2.34444 17.2345 2.69776 17.127C3.05107 17.0194 3.43076 17.0377 3.7721 17.1787C4.11344 17.3197 4.3953 17.5748 4.56964 17.9004C4.74398 18.226 4.8 18.6019 4.72816 18.9642C4.65631 19.3265 4.46105 19.6526 4.17565 19.8871C3.89026 20.1215 3.53239 20.2497 3.16306 20.2498C2.95364 20.2506 2.74612 20.2099 2.55255 20.1299C2.35898 20.05 2.18321 19.9324 2.03544 19.784H2.03581ZM5.21769 16.6017C4.87811 16.2628 4.45988 16.0131 4.00033 15.8751C3.54078 15.7371 3.05422 15.7151 2.58406 15.8109C2.28106 14.5261 2.38231 13.4296 2.89344 12.5484C4.13956 10.388 7.79694 9.69837 12.7424 10.655C12.104 12.8837 11.6597 15.1634 11.4146 17.4688C9.53928 18.8314 7.78718 20.356 6.17844 22.025C5.81319 21.6035 5.47194 21.1845 5.15469 20.768C5.17531 20.7485 5.19744 20.7305 5.21769 20.7106C5.76206 20.1653 6.0678 19.4262 6.0678 18.6556C6.0678 17.8851 5.76206 17.146 5.21769 16.6006V16.6017ZM2.89269 33.4531C1.64994 31.2961 2.88069 27.7827 6.18031 23.975C7.78856 25.6445 9.54015 27.1697 11.4149 28.5331C11.6599 30.8383 12.104 33.118 12.7424 35.3465C7.79656 36.302 4.13919 35.6128 2.89344 33.4531H2.89269ZM27.3768 41.765C27.116 42.0266 26.7725 42.1897 26.4049 42.2265C26.0373 42.2632 25.6684 42.1713 25.361 41.9665C25.0535 41.7616 24.8267 41.4565 24.719 41.1031C24.6114 40.7496 24.6297 40.3699 24.7708 40.0284C24.9119 39.687 25.167 39.405 25.4927 39.2307C25.8184 39.0563 26.1944 39.0003 26.5568 39.0721C26.9192 39.144 27.2454 39.3394 27.4799 39.6249C27.7143 39.9104 27.8425 40.2683 27.8426 40.6377C27.8427 41.0603 27.6752 41.4657 27.3768 41.765ZM26.2518 37.7326C25.6987 37.7326 25.1571 37.8904 24.6907 38.1876C24.2242 38.4848 23.8523 38.9089 23.6186 39.4102C23.3849 39.9115 23.2991 40.469 23.3714 41.0174C23.4437 41.5657 23.671 42.082 24.0266 42.5056C23.0516 43.4345 22.0361 43.9062 21.0018 43.9062C18.5126 43.9062 16.0844 41.0829 14.4337 36.3219C16.6839 35.7625 18.8816 35.0097 21.0022 34.0719C23.123 35.0098 25.3209 35.7626 27.5714 36.3219C27.3877 36.8488 27.1964 37.3531 26.9962 37.8313C26.7527 37.7663 26.5019 37.7331 26.2499 37.7326H26.2518ZM39.1083 33.4531C37.8622 35.6131 34.2048 36.3031 29.2593 35.3465C29.8978 33.1178 30.342 30.8381 30.5872 28.5327C32.4612 27.1694 34.2121 25.6443 35.8196 23.975C39.1192 27.7827 40.3499 31.2961 39.1064 33.4531H39.1083Z" fill="#011875"/>
</svg>
