<svg width="20" height="20" viewBox="0 0 20 20" fill="none" xmlns="http://www.w3.org/2000/svg">
<g clip-path="url(#clip0)">
<path d="M19.5 2.5L19.5 12.5C19.5 12.9142 19.1642 13.25 18.75 13.25L15.5 13.25L15.5 1.75L18.75 1.75C19.1642 1.75 19.5 2.08582 19.5 2.5Z" stroke="#EA8537"/>
<path d="M7.34864 18.7312L6.43067 18.5017C5.85998 18.3595 5.39856 17.9682 5.16479 17.4287C4.93103 16.8897 4.96033 16.2861 5.24597 15.7728L6.54784 13.4284C6.7041 13.1464 6.59423 12.9005 6.53991 12.8083C6.48559 12.7155 6.32385 12.5001 6.00097 12.5001L7.34864 18.7312ZM7.34864 18.7312C7.57203 18.7873 7.80884 18.7159 7.96448 18.5432L7.34864 18.7312ZM2.30834 12.0001L2.30076 12.0001C1.30779 11.996 0.500005 11.1857 0.500005 10.1918C0.500005 10.0555 0.515735 9.91848 0.546551 9.78414L0.54658 9.78414L0.547745 9.7788L1.87904 3.66919C2.19405 2.53999 3.23284 1.75071 4.40735 1.75071L4.40739 1.75071L10.625 1.7501C10.625 1.7501 10.625 1.7501 10.625 1.7501C12.0719 1.75012 13.25 2.92823 13.25 4.3751L13.25 10.9156C13.25 11.5648 13.0113 12.1879 12.5768 12.6717C12.5768 12.6718 12.5767 12.6719 12.5766 12.672L7.59303 18.2085C7.59298 18.2085 7.59291 18.2086 7.59286 18.2087C7.56129 18.2436 7.51445 18.2573 7.47053 18.2463L7.46991 18.2461L6.55194 18.0166L6.55157 18.0165C6.13201 17.912 5.79547 17.6266 5.62358 17.2299L5.6235 17.2297C5.45152 16.8332 5.47304 16.393 5.68288 16.0159L5.68309 16.0155L6.98497 13.6712L6.98519 13.6708C7.26732 13.1616 7.06298 12.7113 6.97102 12.5551C6.87854 12.3974 6.58375 12.0001 6.00097 12.0001L2.30834 12.0001Z" stroke="#EA8537"/>
</g>
<defs>
<clipPath id="clip0">
<rect width="20" height="20" fill="white" transform="translate(20 20) rotate(180)"/>
</clipPath>
</defs>
</svg>
