<svg width="14" height="16" viewBox="0 0 14 16" fill="none" xmlns="http://www.w3.org/2000/svg">
<path d="M10.7801 0H5.60018C4.83019 0 4.2002 0.599999 4.2002 1.33333V10.6667C4.2002 11.4 4.83019 12 5.60018 12H12.6001C13.3701 12 14.0001 11.4 14.0001 10.6667V3.06666L10.7801 0ZM12.6001 10.6667H5.60018V1.33333H9.80012V3.99999H12.6001V10.6667Z" fill="#ED1580"/>
<path d="M3.49959 2H2.09961V12.6667C2.09961 13.4 2.7296 14 3.49959 14H11.8995V12.6667H3.49959V2Z" fill="#ED1580"/>
<path d="M1.39998 4H0V14.6667C0 15.4 0.629991 16 1.39998 16H9.79986V14.6667H1.39998V4Z" fill="#ED1580"/>
</svg>
