<svg width="16" height="12" viewBox="0 0 16 12" fill="none" xmlns="http://www.w3.org/2000/svg">
<path d="M0.5 2.5H1.6C1.8 3.1 2.4 3.5 3 3.5C3.6 3.5 4.2 3.1 4.4 2.5H15.5C15.8 2.5 16 2.3 16 2C16 1.7 15.8 1.5 15.5 1.5H4.4C4.2 0.9 3.6 0.5 3 0.5C2.4 0.5 1.8 0.9 1.6 1.5H0.5C0.2 1.5 0 1.7 0 2C0 2.3 0.2 2.5 0.5 2.5ZM3 1.5C3.3 1.5 3.5 1.7 3.5 2C3.5 2.3 3.3 2.5 3 2.5C2.7 2.5 2.5 2.3 2.5 2C2.5 1.7 2.7 1.5 3 1.5Z" fill="#011875"/>
<path d="M15.5 9.5H9.4C9.2 8.9 8.6 8.5 8 8.5C7.4 8.5 6.8 8.9 6.6 9.5H0.5C0.2 9.5 0 9.7 0 10C0 10.3 0.2 10.5 0.5 10.5H6.6C6.8 11.1 7.4 11.5 8 11.5C8.6 11.5 9.2 11.1 9.4 10.5H15.5C15.8 10.5 16 10.3 16 10C16 9.7 15.8 9.5 15.5 9.5ZM8 10.5C7.7 10.5 7.5 10.3 7.5 10C7.5 9.7 7.7 9.5 8 9.5C8.3 9.5 8.5 9.7 8.5 10C8.5 10.3 8.3 10.5 8 10.5Z" fill="#011875"/>
<path d="M15.5 5.5H14.4C14.2 4.9 13.6 4.5 13 4.5C12.4 4.5 11.8 4.9 11.6 5.5H0.5C0.2 5.5 0 5.7 0 6C0 6.3 0.2 6.5 0.5 6.5H11.6C11.8 7.1 12.4 7.5 13 7.5C13.6 7.5 14.2 7.1 14.4 6.5H15.5C15.8 6.5 16 6.3 16 6C16 5.7 15.8 5.5 15.5 5.5ZM13 6.5C12.7 6.5 12.5 6.3 12.5 6C12.5 5.7 12.7 5.5 13 5.5C13.3 5.5 13.5 5.7 13.5 6C13.5 6.3 13.3 6.5 13 6.5Z" fill="#011875"/>
</svg>
