<svg width="130" height="109" viewBox="0 0 130 109" fill="none" xmlns="http://www.w3.org/2000/svg">
<path d="M13.3588 60.5251H16.0852H21.6743H24.5369H30.126H32.9205H38.5096H41.3041H47.0295H49.824H55.4131H58.2076H63.7966H83.3583C84.1081 60.5251 84.7215 59.911 84.7215 59.1604V20.4028C84.7215 19.6522 84.1081 19.0381 83.3583 19.0381H80.632L79.2688 20.4028H83.2902V59.1604H80.5638V31.4569C80.5638 31.0475 80.2912 30.7745 79.8822 30.7745H75.6563C75.2474 30.7745 74.9747 31.0475 74.9747 31.4569V59.1604H72.1802V38.4169C72.1802 38.0075 71.9076 37.7345 71.4986 37.7345H67.2728C66.8638 37.7345 66.5912 38.0075 66.5912 38.4169V59.1604H63.7966V36.2334L62.6379 37.5298V59.1604H59.5708V40.7369L58.3439 42.0334V59.2287H55.5494V44.8992L54.3225 46.1957V59.2287H51.119V49.3345L49.8922 50.631V59.1604H47.0295V53.3604C47.0295 53.3604 46.8932 53.4287 46.6887 53.3604C46.4842 53.2922 46.416 53.2239 46.416 53.2239L45.8026 52.6098V59.1604H42.7354V49.5392L41.5086 48.311V59.2287H38.7141V45.4451L37.4872 44.2169V59.2287H34.42V41.0781L33.1932 39.8498V59.1604H30.3986V36.984L29.1718 35.7557V59.1604H26.1046V38.5534L24.5369 39.8498V59.1604H21.7424V42.6475L20.5155 43.8757V59.0922H17.4484V47.0145L16.2215 48.2428V59.1604H13.4951V51.0404L12.132 52.4051V59.1604C11.9956 59.911 12.6091 60.5251 13.3588 60.5251ZM76.4743 32.1392H79.3369V59.1604H76.4743V32.1392ZM67.9543 59.1604V39.031H71.0215V59.1604H67.9543ZM13.3588 19.0381H72.3165L70.9534 20.4028H13.3588V42.5792L11.9956 43.944V20.4028C11.9956 19.6522 12.6091 19.0381 13.3588 19.0381ZM100.398 89.5251C100.125 89.7981 100.125 90.1393 100.398 90.4122C100.671 90.6851 106.396 96.3487 111.031 96.3487C115.666 96.3487 121.391 90.6169 121.664 90.4122C121.936 90.1393 121.936 89.7981 121.664 89.5251C121.391 89.2522 115.666 83.5887 111.031 83.5887C106.396 83.5887 100.671 89.3204 100.398 89.5251ZM111.031 95.0522C108.236 95.0522 105.919 92.7322 105.919 89.9345C105.919 87.1369 108.236 84.8169 111.031 84.8169C113.825 84.8169 116.143 87.1369 116.143 89.9345C116.143 92.8004 113.825 95.0522 111.031 95.0522ZM105.306 87.1369C104.897 88.024 104.624 88.9792 104.624 90.0028C104.624 91.0263 104.897 91.9816 105.306 92.8687C103.738 91.7769 102.375 90.6169 101.693 90.0028C102.443 89.3204 103.738 88.1604 105.306 87.1369ZM116.688 92.8004C117.097 91.9134 117.37 90.9581 117.37 89.9345C117.37 88.911 117.097 87.9557 116.688 87.0687C118.256 88.1604 119.619 89.3204 120.232 89.9345C119.619 90.6169 118.256 91.7769 116.688 92.8004ZM99.1031 96.5534C97.8762 94.3016 97.2628 91.7087 97.3991 89.184C97.5354 86.4545 98.5578 83.7934 100.262 81.6098C101.966 79.4263 104.283 77.7887 106.873 76.9698C109.327 76.2193 111.985 76.151 114.439 76.7651C114.712 76.8334 114.916 77.1745 114.78 77.4475C114.712 77.7204 114.371 77.9251 114.098 77.7887C111.849 77.1745 109.395 77.2428 107.146 77.9934C104.692 78.744 102.579 80.2451 101.012 82.224C99.4439 84.2028 98.5578 86.6592 98.4215 89.184C98.2852 91.5722 98.8305 93.8922 99.921 95.9393C100.057 96.2122 99.9892 96.5534 99.7165 96.6898C99.4439 96.8263 99.2394 96.8263 99.1031 96.5534ZM6.95186 48.9251V17.8781C6.95186 15.6263 8.79216 13.7839 11.0414 13.7839H77.4285L76.0653 15.1487H11.0414C9.54191 15.1487 8.31505 16.3769 8.31505 17.8781V47.5604L6.95186 48.9251ZM114.643 90.0028C114.643 91.9816 113.008 93.6192 111.031 93.6192C109.054 93.6192 107.419 91.9816 107.419 90.0028C107.419 89.9345 107.419 89.8663 107.487 89.7298C107.555 89.5251 107.827 89.3204 108.032 89.3204C108.373 89.3204 108.645 89.5934 108.645 89.9345C108.645 91.231 109.736 92.3228 111.031 92.3228C112.326 92.3228 113.417 91.231 113.417 89.9345C113.417 88.6381 112.326 87.5463 111.031 87.5463C110.69 87.5463 110.418 87.2734 110.418 86.9322C110.418 86.591 110.69 86.3181 111.031 86.3181C113.008 86.3181 114.643 87.9557 114.643 90.0028ZM96.6494 65.8475V64.1416C96.6494 63.8004 96.3767 63.5275 96.0359 63.5275H90.4469V17.8781C90.4469 15.6263 88.6066 13.7839 86.3573 13.7839H85.8802L84.517 15.1487H86.3573C87.8568 15.1487 89.0837 16.3769 89.0837 17.8781V63.1181H8.31505V56.0898L6.95186 57.4545V63.5275H0.817534C0.476738 63.5275 0.204102 63.8004 0.204102 64.1416V65.8475C0.204102 68.1675 2.0444 70.0098 4.36181 70.0098H92.4917C94.7409 70.0098 96.6494 68.0993 96.6494 65.8475ZM54.527 64.7557V66.1887H42.3265V64.7557H54.527ZM1.43097 65.8475V64.7557H41.0996V66.8028C41.0996 67.144 41.3723 67.4169 41.7131 67.4169H55.1404C55.4812 67.4169 55.7539 67.144 55.7539 66.8028V64.7557H95.3543V65.8475C95.3543 67.4851 94.0593 68.7816 92.4235 68.7816H4.36181C2.79415 68.7134 1.43097 67.4169 1.43097 65.8475ZM90.1061 90.071C90.1061 90.4122 89.7653 90.6851 89.2882 90.6851H87.925C87.516 90.6851 87.1071 90.4122 87.1071 90.071C87.1071 89.7298 87.4479 89.4569 87.925 89.4569H89.2882C89.6971 89.3887 90.1061 89.7298 90.1061 90.071ZM49.9603 79.0169C49.9603 79.4263 49.6877 79.8357 49.3469 79.8357C49.0061 79.8357 48.7335 79.4945 48.7335 79.0169V77.6522C48.7335 77.2428 49.0061 76.8334 49.3469 76.8334C49.6877 76.8334 49.9603 77.1745 49.9603 77.6522V79.0169ZM85.4031 90.071C85.4031 90.4122 85.0623 90.6851 84.5852 90.6851H83.222C82.8131 90.6851 82.4041 90.4122 82.4041 90.071C82.4041 89.7298 82.7449 89.4569 83.222 89.4569H84.5852C84.9941 89.3887 85.4031 89.7298 85.4031 90.071ZM68.6359 90.071C68.6359 90.4122 68.2951 90.6851 67.818 90.6851H66.4548C66.0459 90.6851 65.6369 90.4122 65.6369 90.071C65.6369 89.7298 65.9777 89.4569 66.4548 89.4569H67.818C68.227 89.3887 68.6359 89.7298 68.6359 90.071ZM74.225 90.071C74.225 90.4122 73.8842 90.6851 73.4071 90.6851H72.0439C71.6349 90.6851 71.226 90.4122 71.226 90.071C71.226 89.7298 71.5668 89.4569 72.0439 89.4569H73.4071C73.816 89.3887 74.225 89.7298 74.225 90.071ZM121.391 105.083C121.596 105.356 121.527 105.697 121.255 105.833C117.847 108.017 113.894 109.04 109.872 108.836C105.646 108.563 101.693 106.925 98.4897 104.127C95.3543 101.33 93.2414 97.5087 92.4917 93.4145C91.7419 89.4569 92.3553 85.3628 94.1275 81.7463C94.2638 81.4734 94.6046 81.3369 94.8772 81.4734C95.1499 81.6098 95.2862 81.951 95.1499 82.224C93.5141 85.6357 92.9688 89.4569 93.6504 93.1416C94.332 97.031 96.3767 100.579 99.3076 103.24C102.238 105.902 106.055 107.471 110.009 107.676C113.757 107.88 117.506 106.925 120.71 104.878C120.846 104.742 121.187 104.81 121.391 105.083ZM127.934 98.2592C127.798 98.5322 127.457 98.6687 127.185 98.5322C126.912 98.3957 126.776 98.0546 126.912 97.7816C128.548 94.3698 129.093 90.5487 128.412 86.864C127.73 82.9745 125.685 79.4263 122.754 76.7651C119.824 74.104 116.007 72.5345 112.053 72.3298C108.305 72.1251 104.556 73.0804 101.352 75.1275C101.08 75.264 100.739 75.264 100.534 74.991C100.33 74.7181 100.398 74.3769 100.671 74.2404C104.079 72.0569 108.032 71.0334 112.053 71.2381C116.279 71.511 120.232 73.1487 123.436 75.9463C126.571 78.744 128.684 82.5651 129.434 86.6592C130.32 90.5487 129.707 94.6428 127.934 98.2592ZM122.345 82.3604C123.845 84.6122 124.663 87.2051 124.663 89.8663C124.663 92.7322 123.777 95.5298 122.141 97.8498C120.505 100.17 118.12 101.944 115.393 102.831C112.871 103.718 110.145 103.786 107.555 103.104C107.282 103.036 107.078 102.695 107.214 102.422C107.282 102.149 107.623 101.944 107.896 102.08C110.281 102.695 112.735 102.626 115.052 101.807C117.574 100.989 119.687 99.351 121.255 97.2357C122.754 95.1204 123.572 92.5275 123.572 89.8663C123.572 87.4098 122.823 85.0216 121.459 82.9745C121.323 82.7016 121.323 82.3604 121.596 82.224C121.868 82.0875 122.209 82.1557 122.345 82.3604ZM79.814 90.071C79.814 90.4122 79.4733 90.6851 78.9961 90.6851H77.633C77.224 90.6851 76.815 90.4122 76.815 90.071C76.815 89.7298 77.1558 89.4569 77.633 89.4569H78.9961C79.4051 89.3887 79.814 89.7298 79.814 90.071ZM49.9603 73.6945C49.9603 74.104 49.6877 74.5134 49.3469 74.5134C49.0061 74.5134 48.7335 74.1722 48.7335 73.6945V72.3298C48.7335 71.9204 49.0061 71.511 49.3469 71.511C49.6877 71.511 49.9603 71.8522 49.9603 72.3298V73.6945ZM49.9603 82.4287V83.7934C49.9603 84.2028 49.6877 84.6122 49.3469 84.6122C49.0061 84.6122 48.7335 84.271 48.7335 83.7934V82.4287C48.7335 82.0192 49.0061 81.6098 49.3469 81.6098C49.6195 81.6781 49.9603 82.0192 49.9603 82.4287ZM49.2787 89.3204C48.9379 89.3204 48.6653 88.9792 48.6653 88.5016V87.1369C48.6653 86.7275 48.9379 86.3181 49.2787 86.3181C49.6195 86.3181 49.8922 86.6592 49.8922 87.1369V88.5016C49.9603 88.911 49.6195 89.3204 49.2787 89.3204ZM63.0469 90.071C63.0469 90.4122 62.7061 90.6851 62.229 90.6851H60.8658C60.4568 90.6851 60.0479 90.4122 60.0479 90.071C60.0479 89.7298 60.3887 89.4569 60.8658 89.4569H62.229C62.6379 89.3887 63.0469 89.7298 63.0469 90.071ZM57.4578 90.071C57.4578 90.4122 57.117 90.6851 56.6399 90.6851H55.2767C54.8678 90.6851 54.4588 90.4122 54.4588 90.071C54.4588 89.7298 54.7996 89.4569 55.2767 89.4569H56.6399C57.0489 89.3887 57.4578 89.7298 57.4578 90.071ZM52.3459 90.071C52.3459 90.4122 52.0051 90.6851 51.528 90.6851H50.1648C49.7558 90.6851 49.3469 90.4122 49.3469 90.071C49.3469 89.7298 49.6877 89.4569 50.1648 89.4569H51.528C51.9369 89.3887 52.3459 89.7298 52.3459 90.071ZM4.29365 59.8428C4.15734 59.8428 3.95286 59.7745 3.8847 59.6381L0.408579 56.1581C0.135942 55.8851 0.135942 55.544 0.408579 55.271L28.3539 27.2945C28.6265 27.0216 28.9673 27.0216 29.2399 27.2945L46.825 44.8992L84.0399 6.82395L81.2454 4.09454C81.1091 3.95807 81.0409 3.68512 81.1091 3.48042C81.1772 3.27571 81.3817 3.07101 81.5862 3.07101L93.923 0.5463C94.1275 0.478065 94.332 0.5463 94.4683 0.682771C94.6046 0.819241 94.6728 1.02395 94.6046 1.22865L92.0145 13.511C91.9464 13.7157 91.8101 13.9204 91.6056 13.9887C91.4011 14.0569 91.1285 13.9887 90.9922 13.8522L88.4021 11.2592L47.3021 53.2239C47.1658 53.3604 47.0295 53.4287 46.8932 53.4287C46.7568 53.4287 46.5524 53.3604 46.4842 53.2239L28.7628 35.6192L4.77077 59.7063C4.63445 59.7745 4.49813 59.8428 4.29365 59.8428ZM1.7036 55.7487L4.29365 58.3416L28.3539 34.2545C28.6265 33.9816 28.9673 33.9816 29.2399 34.2545L46.825 51.8592L87.925 9.89454C88.0613 9.75807 88.1976 9.68983 88.334 9.68983C88.4703 9.68983 88.6747 9.75807 88.7429 9.89454L90.9922 12.1463L93.1051 1.84277L82.8812 3.95807L85.2668 6.27807C85.4031 6.41454 85.4713 6.55101 85.4713 6.68748C85.4713 6.82395 85.4031 7.02865 85.2668 7.09689L47.3021 46.264C47.1658 46.4004 47.0295 46.4687 46.8932 46.4687C46.7568 46.4687 46.5524 46.4004 46.4842 46.264L28.7628 28.6592L1.7036 55.7487Z" fill="#2275B4"/>
</svg>
