<svg width="20" height="20" viewBox="0 0 20 20" fill="none" xmlns="http://www.w3.org/2000/svg">
<path d="M0 7.5V17.5C0 18.1903 0.559616 18.75 1.25 18.75H5V6.25H1.25C0.559616 6.25 0 6.80962 0 7.5Z" fill="#2275B4"/>
<path d="M17.6917 7.49991H13.999C13.6762 7.49991 13.5144 7.28446 13.4601 7.19169C13.4058 7.09952 13.2959 6.85355 13.4522 6.57157L14.754 4.22721C15.0397 3.7139 15.069 3.11026 14.8352 2.57132C14.6014 2.03177 14.14 1.64053 13.5693 1.49832L12.6514 1.26883C12.428 1.21268 12.1912 1.28409 12.0355 1.45682L7.05139 6.99393C6.53442 7.56949 6.25 8.31168 6.25 9.08438V15.6249C6.25 17.3479 7.65198 18.7499 9.375 18.7499L15.5927 18.7493C16.9965 18.7493 18.2361 17.8039 18.6066 16.4507L19.9408 10.3277C19.9799 10.1574 20 9.98281 20 9.80825C20 8.53566 18.9642 7.4999 17.6916 7.4999L17.6917 7.49991Z" fill="#2275B4"/>
</svg>
