<svg width="24" height="24" viewBox="0 0 24 24" fill="none" xmlns="http://www.w3.org/2000/svg">
<path d="M23.1428 6.00001H18.8571V0.857159C18.8571 0.383755 18.4734 0 18 0H6.00001C5.52661 0 5.14285 0.383755 5.14285 0.857159V6.00001H0.857159C0.383755 6.00001 0 6.38377 0 6.85712V18C0 18.4734 0.383755 18.8571 0.857159 18.8571H5.14285V23.1428C5.14285 23.6162 5.52661 24 6.00001 24H18C18.4734 24 18.8571 23.6162 18.8571 23.1428V18.8571H23.1428C23.6162 18.8571 24 18.4734 24 18V6.85712C24 6.38377 23.6162 6.00001 23.1428 6.00001ZM6.85712 1.71427H17.1428V5.99996H6.85712V1.71427ZM17.1428 22.2857H6.85712V14.5714H17.1428V22.2857ZM22.2857 17.1428H18.8571V14.5714H19.7143C20.1877 14.5714 20.5714 14.1876 20.5714 13.7142C20.5714 13.2408 20.1877 12.8571 19.7143 12.8571H4.28569C3.81229 12.8571 3.42854 13.2409 3.42854 13.7143C3.42854 14.1877 3.81229 14.5715 4.28569 14.5715H5.14285V17.1429H1.71427V7.71428H22.2857V17.1428Z" fill="#011875"/>
<path d="M14.5713 16.2861H9.42845C8.95504 16.2861 8.57129 16.6699 8.57129 17.1433C8.57129 17.6167 8.95504 18.0005 9.42845 18.0005H14.5713C15.0447 18.0005 15.4285 17.6167 15.4285 17.1433C15.4285 16.6699 15.0447 16.2861 14.5713 16.2861Z" fill="#2275B4"/>
<path d="M20.5717 9.42871H19.7146C19.2412 9.42871 18.8574 9.81247 18.8574 10.2859C18.8574 10.7593 19.2412 11.143 19.7146 11.143H20.5717C21.0451 11.143 21.4289 10.7593 21.4289 10.2859C21.4289 9.81247 21.0451 9.42871 20.5717 9.42871Z" fill="#2275B4"/>
<path d="M14.5713 18.8574H9.42845C8.95504 18.8574 8.57129 19.2412 8.57129 19.7146C8.57129 20.188 8.95504 20.5717 9.42845 20.5717H14.5713C15.0447 20.5717 15.4285 20.188 15.4285 19.7146C15.4285 19.2412 15.0447 18.8574 14.5713 18.8574Z" fill="#2275B4"/>
</svg>
