<svg width="15" height="13" viewBox="0 0 15 13" fill="none" xmlns="http://www.w3.org/2000/svg">
<path d="M14.1698 7.96607V12.9134H11.3014V8.29763C11.3014 7.13866 10.8873 6.34719 9.84876 6.34719C9.05622 6.34719 8.5854 6.88004 8.37748 7.396C8.30196 7.58039 8.2825 7.83644 8.2825 8.09506V12.9132H5.41395C5.41395 12.9132 5.45245 5.09559 5.41395 4.28637H8.28271V5.50887C8.27694 5.5185 8.26881 5.52791 8.26367 5.53711H8.28271V5.50887C8.6639 4.92233 9.34371 4.08379 10.8678 4.08379C12.755 4.08379 14.1698 5.31678 14.1698 7.96607ZM2.4132 0.12793C1.43199 0.12793 0.790039 0.772017 0.790039 1.61825C0.790039 2.44652 1.41338 3.10921 2.37555 3.10921H2.39416C3.39462 3.10921 4.01668 2.44652 4.01668 1.61825C3.99764 0.772017 3.39462 0.12793 2.4132 0.12793ZM0.960526 12.9134H3.82801V4.28637H0.960526V12.9134Z" fill="#011875"/>
</svg>
