<svg width="15" height="12" viewBox="0 0 15 12" fill="none" xmlns="http://www.w3.org/2000/svg">
<path d="M14.3495 1.62437C13.8352 1.8524 13.2821 2.00663 12.7019 2.07551C13.2942 1.72063 13.7488 1.15911 13.9634 0.48893C13.4091 0.817712 12.795 1.05622 12.1419 1.18478C11.6187 0.627545 10.8732 0.279297 10.0477 0.279297C8.46391 0.279297 7.17938 1.56383 7.17938 3.14763C7.17938 3.37246 7.20483 3.59129 7.25403 3.80135C4.8702 3.68177 2.75654 2.53991 1.34174 0.804021C1.09488 1.22757 0.953272 1.72063 0.953272 2.24621C0.953272 3.24111 1.46003 4.11943 2.22925 4.63368C1.75929 4.61892 1.31671 4.48993 0.93017 4.27452C0.929956 4.28671 0.929955 4.29891 0.929955 4.31088C0.929955 5.70067 1.91908 6.85985 3.231 7.12318C2.99056 7.18906 2.73665 7.22393 2.47546 7.22393C2.29022 7.22393 2.11075 7.20618 1.93577 7.17281C2.3007 8.3121 3.35977 9.14143 4.61522 9.16475C3.63337 9.93419 2.39675 10.3926 1.05253 10.3926C0.821502 10.3926 0.592618 10.3791 0.368652 10.3524C1.63736 11.1665 3.14543 11.6412 4.76517 11.6412C10.0411 11.6412 12.9263 7.27056 12.9263 3.47984C12.9263 3.35556 12.9235 3.2317 12.918 3.10892C13.4788 2.70462 13.9651 2.19958 14.3495 1.62437Z" fill="#011875"/>
</svg>
