<svg width="96" height="32" fill="none" xmlns="http://www.w3.org/2000/svg"><path d="M69.5 8.4h-5.9v23.5h5.9V8.4z" fill="#191919"/><path fill-rule="evenodd" clip-rule="evenodd" d="M37 8.4h6l5.9 13.8 6-13.8h6L50.8 31.9h-4L37 8.4zM5.5.1h5.8l7.4 22.2L26.1.1H32l5.3 31.8h-5.8l-3.4-20.1-6.7 20.1H16L9.3 11.8 5.9 31.9H0L5.5.1z" fill="#191919"/><path d="M65.5 2.6l2.7 2-2.7 2v-4zm-1.9 4.9h5.9V1.6h-5.9v5.9z" fill="#2275B4"/><path fill-rule="evenodd" clip-rule="evenodd" d="M78.3 17.1L72 8.4h6.3v8.7zm0 14.8H72l6.3-8.7v8.7zm9.8-11l7.9 11h-7.1l-4.3-6.1 3.5-4.9zM96 8.4l-7.9 11-3.5-5 4.3-6H96z" fill="#191919"/><path d="M79.1 8.4v23.5l8.5-11.8-8.5-11.7z" fill="#2275B4"/></svg>