<?xml version="1.0" encoding="utf-8"?><svg xmlns="http://www.w3.org/2000/svg" xmlns:xlink="http://www.w3.org/1999/xlink"><symbol viewBox="0 0 64 64" id="alarm" xmlns="http://www.w3.org/2000/svg"><g clip-path="url(#aclip0)"><path d="M32 4.8c.69 0 1.25-.56 1.25-1.25v-2.3a1.25 1.25 0 00-2.5 0v2.3c0 .69.56 1.25 1.25 1.25zm10.826 3.045a1.25 1.25 0 001.704-.473l1.206-2.133a1.25 1.25 0 00-2.175-1.231L42.353 6.14a1.25 1.25 0 00.472 1.704zm8.398 8.249c.204 0 .412-.05.603-.156l2.307-1.273a1.25 1.25 0 10-1.208-2.189l-2.307 1.274a1.25 1.25 0 00.605 2.344zm5.654 8.8h-2.44a1.25 1.25 0 000 2.5h2.44a1.25 1.25 0 000-2.5zM19.47 7.373a1.25 1.25 0 102.177-1.23L20.44 4.008a1.25 1.25 0 00-2.176 1.23l1.207 2.134zm-9.604 7.292l2.307 1.273a1.25 1.25 0 101.208-2.189l-2.307-1.273a1.25 1.25 0 00-1.208 2.189zm-.303 12.729a1.25 1.25 0 000-2.5h-2.44a1.25 1.25 0 000 2.5h2.44zm46.448 28.458h-3.063v-7.679c0-.69-.56-1.25-1.25-1.25h-2.6V25.538c0-9.425-7.669-17.094-17.102-17.094-9.426 0-17.094 7.669-17.094 17.094v21.385H12.3c-.69 0-1.25.56-1.25 1.25v7.679H7.988c-.69 0-1.25.56-1.25 1.25v5.648c0 .69.56 1.25 1.25 1.25h48.023c.69 0 1.25-.56 1.25-1.25v-5.648c0-.69-.56-1.25-1.25-1.25zm-38.61-30.314c0-8.047 6.548-14.594 14.603-14.594 8.047 0 14.593 6.547 14.593 14.594v21.385H35.762V35.126a6.646 6.646 0 002.904-5.502c0-3.675-2.99-6.664-6.666-6.664s-6.667 2.99-6.667 6.664a6.646 6.646 0 002.904 5.502v11.797H17.402V25.538zm12.667 7.776a4.156 4.156 0 01-2.235-3.69A4.17 4.17 0 0132 25.46a4.17 4.17 0 014.166 4.164 4.156 4.156 0 01-2.234 3.69 1.25 1.25 0 00-.67 1.107v12.502h-2.525V34.421a1.25 1.25 0 00-.67-1.107zM54.76 61.5H9.238v-3.148h17.11a1.25 1.25 0 100-2.5H13.552v-6.429h36.897v6.429H37.65a1.25 1.25 0 000 2.5h17.111V61.5z"/><path d="M33.177 56.623a1.263 1.263 0 00-1.221-.77 1.26 1.26 0 00-1.129.885 1.26 1.26 0 00.451 1.368c.41.3.97.325 1.404.057a1.26 1.26 0 00.495-1.54z"/></g><defs><clipPath id="aclip0"><path d="M0 0h64v64H0z"/></clipPath></defs></symbol><symbol viewBox="0 0 8 14" id="arrow" xmlns="http://www.w3.org/2000/svg"><path d="M6.588 13.829L.17 7.412a.583.583 0 010-.824L6.588.17a.583.583 0 11.824.825L1.408 7l6.004 6.004a.582.582 0 010 .825.583.583 0 01-.824 0z"/></symbol><symbol viewBox="0 0 42 46" id="atom" xmlns="http://www.w3.org/2000/svg"><path d="M37.961 21.466a2.907 2.907 0 002.788-4.864 2.752 2.752 0 00-.15-.134c.487-1.768.375-3.308-.357-4.577-1.575-2.73-5.711-3.625-11.386-2.495C26.99 3.916 24.146.781 21 .781c-3.147 0-5.99 3.135-7.857 8.615-5.676-1.13-9.811-.235-11.386 2.494-.71 1.226-.834 2.767-.382 4.478a2.906 2.906 0 002.64 5.068c.39.518.816 1.042 1.275 1.566-3.813 4.352-5.107 8.38-3.533 11.107 1.13 1.96 3.578 2.977 6.968 2.977a22.93 22.93 0 004.417-.484c1.866 5.48 4.71 8.617 7.858 8.617 1.422 0 2.824-.667 4.085-1.922a2.904 2.904 0 003.22-4.714c-.047-.047-.098-.09-.148-.134.246-.581.48-1.2.703-1.847a22.88 22.88 0 004.414.484c3.39 0 5.838-1.017 6.97-2.977 1.574-2.727.28-6.755-3.533-11.106.442-.506.86-1.02 1.25-1.537zm1.86-1.682a1.595 1.595 0 01-2.69-.816 1.593 1.593 0 112.69.816zm-.715-7.237c.513.89.612 1.999.303 3.3a2.904 2.904 0 00-2.772 4.865c.048.048.098.09.148.135-.304.396-.626.79-.964 1.18a39.659 39.659 0 00-5.236-4.56 40.129 40.129 0 00-1.328-6.813c4.946-.957 8.603-.267 9.85 1.892zM27.971 35.068a37.588 37.588 0 01-5.354-1.74 50.192 50.192 0 006.516-3.766 37.58 37.58 0 01-1.162 5.506zm-13.942 0a37.555 37.555 0 01-1.162-5.506 50.78 50.78 0 006.517 3.766 37.597 37.597 0 01-5.355 1.74zm0-24.136a37.575 37.575 0 015.354 1.74 50.597 50.597 0 00-6.517 3.768c.25-1.863.638-3.704 1.163-5.508zm-2.78 15.83A37.038 37.038 0 017.065 23a37.097 37.097 0 014.186-3.763 50.198 50.198 0 000 7.525zm5.464 3.668a48.4 48.4 0 01-4.053-2.616 48.661 48.661 0 010-9.628 49.223 49.223 0 018.34-4.82 49.274 49.274 0 014.289 2.204c1.42.82 2.78 1.7 4.052 2.616a48.63 48.63 0 010 9.628 49.223 49.223 0 01-8.34 4.82 49.188 49.188 0 01-4.29-2.204h.002zm11.259-19.5a37.568 37.568 0 011.162 5.506 51.32 51.32 0 00-3.187-2.005 51.824 51.824 0 00-3.33-1.759 37.597 37.597 0 015.354-1.74v-.002zm2.778 8.307A37.04 37.04 0 0134.936 23a37.076 37.076 0 01-4.186 3.763 50.147 50.147 0 000-7.525zM21 2.094c2.49 0 4.917 2.823 6.568 7.584A40.244 40.244 0 0021 11.928a40.217 40.217 0 00-6.568-2.25C16.082 4.917 18.51 2.094 21 2.094zM2.036 19.784a1.596 1.596 0 112.255-2.26 1.596 1.596 0 01-2.256 2.26zm3.182-3.182a2.907 2.907 0 00-2.634-.791c-.303-1.285-.202-2.381.31-3.263 1.246-2.16 4.903-2.85 9.848-1.893a40.163 40.163 0 00-1.327 6.814 39.617 39.617 0 00-5.237 4.556 25.72 25.72 0 01-1.023-1.257c.02-.02.042-.038.063-.057a2.909 2.909 0 000-4.11zM2.893 33.453c-1.243-2.157-.012-5.67 3.287-9.478a39.644 39.644 0 005.235 4.558 40.176 40.176 0 001.327 6.813c-4.945.956-8.603.267-9.849-1.893zm24.484 8.312a1.597 1.597 0 11-2.262-2.255 1.597 1.597 0 012.262 2.255zm-1.125-4.032a2.905 2.905 0 00-2.225 4.773c-.975.928-1.99 1.4-3.025 1.4-2.49 0-4.918-2.823-6.568-7.584a40.25 40.25 0 006.568-2.25 40.292 40.292 0 006.57 2.25 26.545 26.545 0 01-.576 1.51 2.916 2.916 0 00-.746-.1h.002zm12.856-4.28c-1.246 2.16-4.903 2.85-9.849 1.893a40.163 40.163 0 001.328-6.813 39.63 39.63 0 005.233-4.558c3.3 3.808 4.53 7.321 3.286 9.478h.002z"/></symbol><symbol viewBox="0 0 14 19" id="doc" xmlns="http://www.w3.org/2000/svg"><path d="M9.975 0H1.75C.787 0 0 .855 0 1.9v15.2C0 18.145.787 19 1.75 19h10.5c.963 0 1.75-.855 1.75-1.9V4.37L9.975 0zm2.275 17.1H1.75V1.9h7v3.8h3.5v11.4z"/></symbol><symbol viewBox="0 0 14 16" id="files" xmlns="http://www.w3.org/2000/svg"><path d="M10.78 0H5.6c-.77 0-1.4.6-1.4 1.333v9.334C4.2 11.4 4.83 12 5.6 12h7c.77 0 1.4-.6 1.4-1.333v-7.6L10.78 0zm1.82 10.667h-7V1.333h4.2V4h2.8v6.667z"/><path d="M3.5 2H2.1v10.667C2.1 13.4 2.73 14 3.5 14h8.4v-1.333H3.5V2z"/><path d="M1.4 4H0v10.667C0 15.4.63 16 1.4 16h8.4v-1.333H1.4V4z"/></symbol><symbol viewBox="0 0 16 12" id="filter" xmlns="http://www.w3.org/2000/svg"><path d="M.5 2.5h1.1c.2.6.8 1 1.4 1 .6 0 1.2-.4 1.4-1h11.1c.3 0 .5-.2.5-.5s-.2-.5-.5-.5H4.4C4.2.9 3.6.5 3 .5c-.6 0-1.2.4-1.4 1H.5c-.3 0-.5.2-.5.5s.2.5.5.5zm2.5-1c.3 0 .5.2.5.5s-.2.5-.5.5-.5-.2-.5-.5.2-.5.5-.5zm12.5 8H9.4c-.2-.6-.8-1-1.4-1-.6 0-1.2.4-1.4 1H.5c-.3 0-.5.2-.5.5s.2.5.5.5h6.1c.2.6.8 1 1.4 1 .6 0 1.2-.4 1.4-1h6.1c.3 0 .5-.2.5-.5s-.2-.5-.5-.5zm-7.5 1c-.3 0-.5-.2-.5-.5s.2-.5.5-.5.5.2.5.5-.2.5-.5.5zm7.5-5h-1.1c-.2-.6-.8-1-1.4-1-.6 0-1.2.4-1.4 1H.5c-.3 0-.5.2-.5.5s.2.5.5.5h11.1c.2.6.8 1 1.4 1 .6 0 1.2-.4 1.4-1h1.1c.3 0 .5-.2.5-.5s-.2-.5-.5-.5zm-2.5 1c-.3 0-.5-.2-.5-.5s.2-.5.5-.5.5.2.5.5-.2.5-.5.5z"/></symbol><symbol viewBox="0 0 130 109" id="get_started" xmlns="http://www.w3.org/2000/svg"><path d="M13.359 60.525h69.999c.75 0 1.364-.614 1.364-1.365V20.403a1.37 1.37 0 00-1.364-1.365h-2.726l-1.363 1.365h4.021V59.16h-2.726V31.457c0-.41-.273-.683-.682-.683h-4.226c-.409 0-.681.273-.681.683V59.16H72.18V38.417c0-.41-.272-.683-.681-.683h-4.226c-.41 0-.682.273-.682.683V59.16h-2.794V36.233l-1.16 1.297v21.63h-3.066V40.737l-1.227 1.296V59.23h-2.795V44.9l-1.227 1.297V59.23H51.12v-9.895l-1.227 1.297v8.53H47.03v-5.8s-.136.068-.34 0c-.205-.069-.273-.137-.273-.137l-.613-.614v6.55h-3.068v-9.62L41.51 48.31v10.918h-2.795V45.445l-1.227-1.228v15.012H34.42v-18.15l-1.227-1.23V59.16H30.4V36.984l-1.227-1.228V59.16h-3.067V38.553l-1.568 1.297v19.31h-2.795V42.648l-1.227 1.228v15.216h-3.067V47.014l-1.227 1.229V59.16h-2.726v-8.12l-1.363 1.365v6.755c-.136.751.477 1.365 1.227 1.365zM76.474 32.14h2.863v27.02h-2.863V32.14zm-8.52 27.021v-20.13h3.068v20.13h-3.068zM13.36 19.038h58.958l-1.364 1.365H13.36v22.176l-1.363 1.365V20.403c0-.75.613-1.365 1.363-1.365zm87.039 70.487c-.273.273-.273.614 0 .887s5.998 5.937 10.633 5.937c4.635 0 10.36-5.732 10.633-5.937.272-.273.272-.614 0-.887-.273-.273-5.998-5.936-10.633-5.936-4.635 0-10.36 5.731-10.633 5.936zm10.633 5.527c-2.795 0-5.112-2.32-5.112-5.118 0-2.797 2.317-5.117 5.112-5.117 2.794 0 5.112 2.32 5.112 5.118a5.108 5.108 0 01-5.112 5.117zm-5.725-7.915c-.409.887-.682 1.842-.682 2.866 0 1.023.273 1.979.682 2.866a39.19 39.19 0 01-3.613-2.866c.75-.683 2.045-1.843 3.613-2.866zm11.382 5.663c.409-.887.682-1.842.682-2.865 0-1.024-.273-1.98-.682-2.866 1.568 1.091 2.931 2.251 3.544 2.865-.613.683-1.976 1.843-3.544 2.866zm-17.585 3.753c-1.227-2.251-1.84-4.844-1.704-7.369.136-2.73 1.159-5.39 2.863-7.574s4.021-3.821 6.611-4.64a14.254 14.254 0 017.566-.205c.273.068.477.41.341.683-.068.272-.409.477-.682.34a12.075 12.075 0 00-6.952.205c-2.454.751-4.567 2.252-6.134 4.231-1.568 1.979-2.454 4.435-2.59 6.96a12.79 12.79 0 001.499 6.755c.136.273.068.614-.205.75-.272.137-.477.137-.613-.136zM6.952 48.925V17.878a4.104 4.104 0 014.09-4.094h66.386l-1.363 1.365H11.041a2.736 2.736 0 00-2.726 2.73V47.56l-1.363 1.365zm107.691 41.078c0 1.979-1.635 3.616-3.612 3.616s-3.612-1.637-3.612-3.616c0-.069 0-.137.068-.273.068-.205.34-.41.545-.41a.61.61 0 01.613.615c0 1.296 1.091 2.388 2.386 2.388 1.295 0 2.386-1.092 2.386-2.388 0-1.297-1.091-2.389-2.386-2.389a.61.61 0 01-.613-.614.61.61 0 01.613-.614c1.977 0 3.612 1.638 3.612 3.685zM96.649 65.847v-1.705a.611.611 0 00-.613-.614h-5.59v-45.65a4.104 4.104 0 00-4.089-4.094h-.477l-1.363 1.365h1.84c1.5 0 2.727 1.228 2.727 2.73v45.24H8.315v-7.03l-1.363 1.366v6.073H.818a.611.611 0 00-.614.614v1.706c0 2.32 1.84 4.162 4.158 4.162h88.13c2.249 0 4.157-1.91 4.157-4.163zm-42.122-1.091v1.433h-12.2v-1.433h12.2zM1.431 65.847v-1.091H41.1v2.047a.61.61 0 00.613.614H55.14a.612.612 0 00.614-.614v-2.047h39.6v1.091a2.91 2.91 0 01-2.93 2.935H4.362c-1.568-.069-2.931-1.365-2.931-2.934zm88.675 24.224c0 .341-.34.614-.818.614h-1.363c-.409 0-.818-.273-.818-.614 0-.341.34-.614.818-.614h1.363c.41-.068.818.273.818.614zM49.96 79.017c0 .41-.272.819-.613.819-.34 0-.614-.341-.614-.82v-1.364c0-.41.273-.819.614-.819.34 0 .613.341.613.82v1.364zM85.403 90.07c0 .341-.34.614-.818.614h-1.363c-.409 0-.818-.273-.818-.614 0-.341.34-.614.818-.614h1.363c.41-.068.818.273.818.614zm-16.767 0c0 .341-.34.614-.818.614h-1.363c-.41 0-.818-.273-.818-.614 0-.341.34-.614.818-.614h1.363c.409-.068.818.273.818.614zm5.589 0c0 .341-.34.614-.818.614h-1.363c-.41 0-.818-.273-.818-.614 0-.341.34-.614.818-.614h1.363c.409-.068.818.273.818.614zm47.166 15.012c.205.273.136.614-.136.75-3.408 2.184-7.361 3.207-11.383 3.003a19.077 19.077 0 01-11.382-4.709c-3.136-2.797-5.249-6.618-5.998-10.712-.75-3.958-.137-8.052 1.635-11.669.137-.273.478-.41.75-.273.273.137.41.478.273.751-1.636 3.412-2.181 7.233-1.5 10.918.682 3.889 2.727 7.437 5.658 10.098 2.93 2.662 6.747 4.231 10.701 4.436a18.047 18.047 0 0010.701-2.798c.136-.136.477-.068.681.205zm6.543-6.824c-.136.273-.477.41-.749.273-.273-.136-.409-.477-.273-.75 1.636-3.412 2.181-7.233 1.5-10.918-.682-3.89-2.727-7.438-5.658-10.099-2.93-2.661-6.747-4.23-10.701-4.435a18.04 18.04 0 00-10.701 2.797c-.272.137-.613.137-.818-.136-.204-.273-.136-.614.137-.75 3.408-2.184 7.361-3.208 11.382-3.003a19.081 19.081 0 0111.383 4.708c3.135 2.798 5.248 6.62 5.998 10.713.886 3.89.273 7.984-1.5 11.6zm-5.589-15.899c1.5 2.252 2.318 4.845 2.318 7.506 0 2.866-.886 5.664-2.522 7.984a13.358 13.358 0 01-6.748 4.981c-2.522.887-5.248.955-7.838.273-.273-.068-.477-.409-.341-.682.068-.273.409-.478.682-.342 2.385.615 4.839.546 7.156-.273 2.522-.818 4.635-2.456 6.203-4.571 1.499-2.116 2.317-4.709 2.317-7.37 0-2.456-.749-4.844-2.113-6.891-.136-.273-.136-.615.137-.751.272-.136.613-.068.749.136zM79.814 90.07c0 .341-.34.614-.818.614h-1.363c-.409 0-.818-.273-.818-.614 0-.341.34-.614.818-.614h1.363c.41-.068.818.273.818.614zM49.96 73.695c0 .409-.272.818-.613.818-.34 0-.614-.34-.614-.819V72.33c0-.41.273-.819.614-.819.34 0 .613.341.613.819v1.365zm0 8.734v1.364c0 .41-.272.82-.613.82-.34 0-.614-.342-.614-.82V82.43c0-.41.273-.82.614-.82.273.07.613.41.613.82zm-.681 6.891c-.341 0-.614-.34-.614-.818v-1.365c0-.41.273-.819.614-.819.34 0 .613.341.613.819v1.365c.068.409-.273.818-.613.818zm13.768.751c0 .341-.34.614-.818.614h-1.363c-.41 0-.818-.273-.818-.614 0-.341.34-.614.818-.614h1.363c.409-.068.818.273.818.614zm-5.59 0c0 .341-.34.614-.817.614h-1.363c-.41 0-.818-.273-.818-.614 0-.341.34-.614.818-.614h1.363c.409-.068.818.273.818.614zm-5.111 0c0 .341-.34.614-.818.614h-1.363c-.41 0-.818-.273-.818-.614 0-.341.34-.614.818-.614h1.363c.409-.068.818.273.818.614zM4.294 59.843c-.137 0-.341-.069-.41-.205L.41 56.158c-.273-.273-.273-.614 0-.887l27.945-27.977c.273-.272.613-.272.886 0L46.825 44.9 84.04 6.824l-2.795-2.73a.655.655 0 01-.136-.614c.068-.204.273-.409.477-.409L93.923.546a.53.53 0 01.545.137.53.53 0 01.137.546l-2.59 12.282c-.069.205-.205.41-.41.478a.653.653 0 01-.613-.137l-2.59-2.593-41.1 41.965c-.136.136-.273.205-.409.205-.136 0-.34-.069-.409-.205L28.763 35.619 4.77 59.706c-.137.069-.273.137-.477.137zm-2.59-4.094l2.59 2.593 24.06-24.087c.273-.273.613-.273.886 0l17.585 17.604 41.1-41.964c.136-.137.273-.205.409-.205.136 0 .34.068.409.205l2.25 2.251 2.112-10.303-10.224 2.115 2.386 2.32c.136.137.204.273.204.41 0 .136-.068.34-.204.409L47.302 46.264c-.136.136-.273.205-.409.205-.136 0-.34-.069-.409-.205L28.763 28.659 1.703 55.75z"/></symbol><symbol viewBox="0 0 24 24" id="search" xmlns="http://www.w3.org/2000/svg"><path d="M23.854 22.44l-6.972-6.972A9.451 9.451 0 0019 9.5C19 4.262 14.738 0 9.5 0S0 4.262 0 9.5 4.262 19 9.5 19c2.26 0 4.335-.796 5.968-2.118l6.971 6.972a.5.5 0 00.708 0l.707-.707a.5.5 0 000-.707zM9.5 17C5.364 17 2 13.636 2 9.5S5.364 2 9.5 2 17 5.364 17 9.5 13.636 17 9.5 17z"/></symbol><symbol fill-rule="evenodd" clip-rule="evenodd" viewBox="0 0 24 24" id="view" xmlns="http://www.w3.org/2000/svg"><path d="M12.01 20C6.945 20 2.424 15.789 0 11.576 2.418 7.473 6.943 4 12.01 4c5.135 0 9.635 3.453 11.999 7.564C21.768 15.994 17.283 20 12.01 20zM1.168 11.584C2.011 12.915 6.186 19 12.01 19c6.305 0 10.112-6.103 10.851-7.405C22.089 10.397 18.255 5 12.01 5 5.894 5 1.985 10.355 1.168 11.584zM12 7c2.76 0 5 2.24 5 5s-2.24 5-5 5-5-2.24-5-5 2.24-5 5-5zm0 1c2.208 0 4 1.792 4 4s-1.792 4-4 4-4-1.792-4-4 1.792-4 4-4z"/></symbol><symbol viewBox="0 0 16 16" id="x" xmlns="http://www.w3.org/2000/svg"><path d="M8.884 8l6.933-6.933a.625.625 0 10-.884-.884L8 7.116 1.067.183a.625.625 0 10-.884.884L7.116 8 .183 14.933a.625.625 0 10.884.884L8 8.884l6.933 6.933a.623.623 0 00.884 0 .625.625 0 000-.884L8.884 8z"/></symbol></svg>