<svg width="194" height="64" viewBox="0 0 194 64" fill="none" xmlns="http://www.w3.org/2000/svg">
<path d="M139.873 16.7041H127.999V63.9997H139.873V16.7041Z" fill="white"/>
<path fill-rule="evenodd" clip-rule="evenodd" d="M74.4654 16.7041H86.5409L98.4151 44.4777L110.491 16.7041H122.566L102.239 63.9997H94.1887L74.4654 16.7041Z" fill="white"/>
<path fill-rule="evenodd" clip-rule="evenodd" d="M11.0692 0H22.7421L37.6352 44.6792L52.5283 0H64.4025L75.0692 64H63.3962L56.5535 23.5472L43.0692 64H32.2013L18.717 23.5472L11.8742 64H0L11.0692 0Z" fill="white"/>
<path d="M131.823 5.03113L137.257 9.05629L131.823 13.0814V5.03113ZM127.999 14.8928H139.873V3.01855H127.999V14.8928Z" fill="#2275B4"/>
<path fill-rule="evenodd" clip-rule="evenodd" d="M157.585 34.2135L144.906 16.7041H157.585V34.2135Z" fill="white"/>
<path fill-rule="evenodd" clip-rule="evenodd" d="M157.585 63.9997H144.906L157.585 46.4902V63.9997Z" fill="white"/>
<path fill-rule="evenodd" clip-rule="evenodd" d="M177.308 41.8613L193.207 63.9997H178.918L170.264 51.723L177.308 41.8613Z" fill="white"/>
<path fill-rule="evenodd" clip-rule="evenodd" d="M193.207 16.7041L177.308 38.8425L170.264 28.7796L178.918 16.7041H193.207Z" fill="white"/>
<path d="M159.195 16.7041V63.9997L176.301 40.2513L159.195 16.7041Z" fill="#2275B4"/>
</svg>
