<svg width="96" height="32" viewBox="0 0 96 32" fill="none" xmlns="http://www.w3.org/2000/svg">
<path d="M69.4996 8.39941H63.5996V31.8994H69.4996V8.39941Z" fill="#191919"/>
<path fill-rule="evenodd" clip-rule="evenodd" d="M37 8.39941H43L48.9 22.1994L54.9 8.39941H60.9L50.8 31.8994H46.8L37 8.39941Z" fill="#191919"/>
<path fill-rule="evenodd" clip-rule="evenodd" d="M5.5 0.0996094H11.3L18.7 22.2996L26.1 0.0996094H32L37.3 31.8996H31.5L28.1 11.7996L21.4 31.8996H16L9.3 11.7996L5.9 31.8996H0L5.5 0.0996094Z" fill="#191919"/>
<path d="M65.4996 2.59961L68.1996 4.59961L65.4996 6.59961V2.59961ZM63.5996 7.49961H69.4996V1.59961H63.5996V7.49961Z" fill="#2275B4"/>
<path fill-rule="evenodd" clip-rule="evenodd" d="M78.3 17.0994L72 8.39941H78.3V17.0994Z" fill="#191919"/>
<path fill-rule="evenodd" clip-rule="evenodd" d="M78.3 31.8992H72L78.3 23.1992V31.8992Z" fill="#191919"/>
<path fill-rule="evenodd" clip-rule="evenodd" d="M88.0996 20.8994L95.9996 31.8994H88.8996L84.5996 25.7994L88.0996 20.8994Z" fill="#191919"/>
<path fill-rule="evenodd" clip-rule="evenodd" d="M95.9996 8.39941L88.0996 19.3994L84.5996 14.3994L88.8996 8.39941H95.9996Z" fill="#191919"/>
<path d="M79.0996 8.39941V31.8994L87.5996 20.0994L79.0996 8.39941Z" fill="#2275B4"/>
</svg>
