<svg width="81" height="80" viewBox="0 0 81 80" fill="none" xmlns="http://www.w3.org/2000/svg">
<path d="M68.3941 68.2788C52.766 83.9071 27.4319 83.9071 11.8364 68.2788C-3.79183 52.6506 -3.79183 27.3164 11.8364 11.7212C27.4647 -3.90706 52.7986 -3.90706 68.3941 11.7212C84.0223 27.3494 84.0223 52.6836 68.3941 68.2788Z" fill="white"/>
<path d="M62.3733 10.3059C56.1548 5.63393 48.4558 2.87012 40.1318 2.87012C19.6343 2.90312 3.01904 19.5183 3.01904 39.9829C3.01904 48.2411 5.71707 55.8415 10.2575 61.9942C35.1967 54.756 54.9045 35.1796 62.3733 10.3059Z" fill="#EC0F28"/>
<path d="M71.2562 19.8145C72.0131 22.2491 72.408 24.8156 72.408 27.4806C72.408 36.1008 68.1637 43.6681 61.7479 48.4059C50.5285 56.6644 34.2094 56.6644 11.6719 63.771C18.4824 71.8975 28.7148 77.096 40.1318 77.096C60.6293 77.096 77.2446 60.4807 77.2446 39.9831C77.2116 32.5475 75.0403 25.6382 71.2562 19.8145Z" fill="#004A98"/>
</svg>
